<svg id="Layer_1" xmlns="http://www.w3.org/2000/svg" viewBox="0 0 70.2 46"><style>.st0{fill:#FFFFFF;}</style><path class="st0" d="M42.6 0H27.7c-1.9 0-3.5 1.6-3.5 3.5v14.9c0 1.9 1.6 3.5 3.5 3.5h14.8c2 0 3.5-1.6 3.5-3.5V3.5C46 1.6 44.5 0 42.6 0zm2.1 18c0 1.4-1.1 2.5-2.5 2.5H28.1c-1.4 0-2.5-1.1-2.5-2.5V3.9c0-1.4 1.1-2.5 2.5-2.5h14c1.4 0 2.5 1.1 2.6 2.5V18z"/><path class="st0" d="M33.1 13.4c-.9 0-1.4-.7-1.1-1.6l2.3-5c.4-.9 1.1-.9 1.4 0l2.3 5c.4.9 0 1.6-1.1 1.6h-3.8zM42.6 24.2H27.7c-1.9 0-3.5 1.6-3.5 3.5v14.8c0 1.9 1.6 3.5 3.5 3.5h14.8c2 0 3.5-1.5 3.6-3.4V27.7c0-1.9-1.6-3.5-3.5-3.5zm2.1 18c0 1.4-1.1 2.5-2.5 2.5H28.1c-1.4 0-2.5-1.1-2.5-2.5V28.1c0-1.4 1.1-2.5 2.5-2.5h14.1c1.4 0 2.5 1.1 2.5 2.5v14.1z"/><path class="st0" d="M37.1 32.8c.9 0 1.4.7 1.1 1.6l-2.3 5c-.4.9-1.1.9-1.4 0l-2.3-5c-.4-.9 0-1.6 1.1-1.6h3.8zM18.4 23.9H3.5c-1.9 0-3.5 1.6-3.5 3.5v14.8c0 1.9 1.6 3.5 3.5 3.5h14.9c1.9 0 3.5-1.6 3.5-3.4V27.4c0-1.9-1.6-3.5-3.5-3.5zm2.1 18c0 1.4-1.1 2.5-2.5 2.5H3.9c-1.4 0-2.5-1.1-2.5-2.5V27.8c0-1.4 1.1-2.5 2.5-2.5H18c1.4 0 2.5 1.1 2.5 2.5v14.1z"/><path class="st0" d="M13.6 36.8c0 .9-.7 1.4-1.6 1.1l-5-2.3c-.9-.4-.9-1.1 0-1.4l5-2.3c.9-.4 1.6 0 1.6 1.1v3.8zM66.7 23.9H51.8c-1.9 0-3.5 1.6-3.5 3.5v14.8c0 1.9 1.6 3.5 3.5 3.5h14.9c1.9 0 3.5-1.6 3.5-3.4V27.4c0-1.9-1.6-3.5-3.5-3.5zm2.1 18c0 1.4-1.1 2.5-2.5 2.5H52.2c-1.4 0-2.5-1.1-2.5-2.5V27.8c0-1.4 1.1-2.5 2.5-2.5h14.1c1.4 0 2.5 1.1 2.5 2.5v14.1z"/><path class="st0" d="M56.6 32.8c0-.9.7-1.4 1.6-1.1l5 2.3c.9.4.9 1.1 0 1.4l-5 2.3c-.9.4-1.6 0-1.6-1.1v-3.8z"/></svg>