<svg id="Layer_1" xmlns="http://www.w3.org/2000/svg" viewBox="0 0 21.9 21.9"><style>.st0{fill:#FFFFFF;} .st1{font-family:&apos;SourceSansPro-Regular&apos;;} .st2{font-size:12px;}</style><path class="st0" d="M18.4 21.9H3.5c-1.9 0-3.5-1.6-3.5-3.5V3.5C0 1.6 1.6 0 3.5 0h14.9c1.9 0 3.5 1.6 3.5 3.5v14.9c0 1.9-1.6 3.5-3.5 3.5zM3.5 1C2.1 1 1 2.1 1 3.5v14.9c0 1.4 1.1 2.5 2.5 2.5h14.9c1.4 0 2.5-1.1 2.5-2.5V3.5c0-1.4-1.1-2.5-2.5-2.5H3.5z"/><text transform="translate(7.756 14.97)" class="st0 st1 st2">S</text></svg>